<?xml version="1.0" encoding="UTF-8"?>
<svg width="26px" height="35px" viewBox="0 0 26 35" version="1.1" xmlns="http://www.w3.org/2000/svg" xmlns:xlink="http://www.w3.org/1999/xlink">
    <!-- Generator: Sketch 47.1 (45422) - http://www.bohemiancoding.com/sketch -->
    <title>Group 8</title>
    <desc>Created with Sketch.</desc>
    <defs></defs>
    <g id="Phase-1_Design-Concept" stroke="none" stroke-width="1" fill="none" fill-rule="evenodd">
        <g id="Group-9" transform="translate(0.000000, -4.000000)" fill="#142E81">
            <g id="Group-8" transform="translate(0.000000, 4.000000)">
                <path d="M12.8877582,13.0951949 C12.7370367,12.9682684 12.5360747,12.9682684 12.3853532,13.0951949 L8.11491089,17.1060743 C8.08979064,17.1314597 8.03955014,17.156845 8.0144299,17.156845 C7.9641894,17.156845 7.93906915,17.1314597 7.9139489,17.1060743 L6.78353769,15.8368087 C6.65793644,15.7098821 6.45697445,15.6591115 6.30625295,15.7860381 L5.17584174,16.5222121 C5.07536075,16.5729828 5.02512025,16.674524 5,16.8014506 C5,16.9029918 5.02512025,17.0299184 5.100481,17.1060743 C5.40192399,17.3853128 5.70336698,17.6899365 5.97968972,17.969175 C6.55745545,18.5530372 7.08498068,19.18767 7.58738566,19.8476881 C7.66274641,19.9492294 7.71298691,20 7.88882865,20 L7.88882865,20 C8.14003114,20 8.26563239,19.9492294 10.6520561,16.7252947 C11.8075875,15.1767906 12.9379987,13.6029012 12.9379987,13.6029012 C13.0384797,13.4505893 13.0133595,13.2221215 12.8877582,13.0951949 L12.8877582,13.0951949 Z" id="Shape"></path>
                <path d="M12.8877582,21.0951949 C12.7370367,20.9682684 12.5360747,20.9682684 12.3853532,21.0951949 L8.11491089,25.1060743 C8.08979064,25.1314597 8.03955014,25.156845 8.0144299,25.156845 C7.9641894,25.156845 7.93906915,25.1314597 7.9139489,25.1060743 L6.78353769,23.8368087 C6.65793644,23.7098821 6.45697445,23.6591115 6.30625295,23.7860381 L5.17584174,24.5222121 C5.07536075,24.5729828 5.02512025,24.674524 5,24.8014506 C5,24.9029918 5.02512025,25.0299184 5.100481,25.1060743 C5.40192399,25.3853128 5.70336698,25.6899365 5.97968972,25.969175 C6.55745545,26.5530372 7.08498068,27.18767 7.58738566,27.8476881 C7.66274641,27.9492294 7.71298691,28 7.88882865,28 L7.88882865,28 C8.14003114,28 8.26563239,27.9492294 10.6520561,24.7252947 C11.8075875,23.1767906 12.9379987,21.6029012 12.9379987,21.6029012 C13.0384797,21.4505893 13.0133595,21.2221215 12.8877582,21.0951949 L12.8877582,21.0951949 Z" id="Shape"></path>
                <g id="shopping-list" fill-rule="nonzero">
                    <path d="M20.5833333,15.3125 L16.25,15.3125 C15.652,15.3125 15.1666667,15.8025 15.1666667,16.40625 C15.1666667,17.01 15.652,17.5 16.25,17.5 L20.5833333,17.5 C21.1813333,17.5 21.6666667,17.01 21.6666667,16.40625 C21.6666667,15.8025 21.1813333,15.3125 20.5833333,15.3125 Z" id="Shape"></path>
                    <path d="M20.5833333,24.0625 L16.25,24.0625 C15.652,24.0625 15.1666667,24.5525 15.1666667,25.15625 C15.1666667,25.76 15.652,26.25 16.25,26.25 L20.5833333,26.25 C21.1813333,26.25 21.6666667,25.76 21.6666667,25.15625 C21.6666667,24.5525 21.1813333,24.0625 20.5833333,24.0625 Z" id="Shape"></path>
                    <path d="M23.8333333,4.375 L19.5,4.375 L19.5,3.28125 C19.5,2.6775 19.0146667,2.1875 18.4166667,2.1875 L16.0658333,2.1875 C15.6173333,0.914375 14.4126667,0 13,0 C11.5873333,0 10.3826667,0.914375 9.93416667,2.1875 L7.58333333,2.1875 C6.98533333,2.1875 6.5,2.6775 6.5,3.28125 L6.5,4.375 L2.16666667,4.375 C0.972833333,4.375 0,5.3571875 0,6.5625 L0,32.8125 C0,34.0178125 0.972833333,35 2.16666667,35 L23.8333333,35 C25.0271667,35 26,34.0178125 26,32.8125 L26,6.5625 C26,5.3571875 25.0271667,4.375 23.8333333,4.375 Z M8.66666667,4.375 L10.8333333,4.375 C11.4313333,4.375 11.9166667,3.885 11.9166667,3.28125 C11.9166667,2.6775 12.402,2.1875 13,2.1875 C13.598,2.1875 14.0833333,2.6775 14.0833333,3.28125 C14.0833333,3.885 14.5686667,4.375 15.1666667,4.375 L17.3333333,4.375 L17.3333333,6.5625 L8.66666667,6.5625 L8.66666667,4.375 Z M23.8333333,32.8125 L2.16666667,32.8125 L2.16666667,6.5625 L6.5,6.5625 L6.5,7.65625 C6.5,8.26 6.98533333,8.75 7.58333333,8.75 L18.4166667,8.75 C19.0146667,8.75 19.5,8.26 19.5,7.65625 L19.5,6.5625 L23.8333333,6.5625 L23.8333333,32.8125 Z" id="Shape"></path>
                </g>
            </g>
        </g>
    </g>
</svg>